<svg width="40" height="40" viewBox="0 0 40 40" fill="none" xmlns="http://www.w3.org/2000/svg">
    <!-- Root repository (center bottom) -->
    <circle cx="20" cy="32" r="4" fill="#5AFF7A"/>
    
    <!-- Branch lines -->
    <path d="M20 28L14 22" stroke="#5BB8E8" stroke-width="2" stroke-linecap="round"/>
    <path d="M20 28L20 20" stroke="#5AFF7A" stroke-width="2" stroke-linecap="round"/>
    <path d="M20 28L26 22" stroke="#8B7AFF" stroke-width="2" stroke-linecap="round"/>
    
    <!-- Worktree folders -->
    <path d="M10 18H18C19.1046 18 20 18.8954 20 20V24C20 25.1046 19.1046 26 18 26H10C8.89543 26 8 25.1046 8 24V20C8 18.8954 8.89543 18 10 18Z" fill="#5BB8E8" fill-opacity="0.2" stroke="#5BB8E8" stroke-width="1.5"/>
    <path d="M8 20H20" stroke="#5BB8E8" stroke-width="1.5" stroke-linecap="round"/>
    
    <path d="M16 14H24C25.1046 14 26 14.8954 26 16V20C26 21.1046 25.1046 22 24 22H16C14.8954 22 14 21.1046 14 20V16C14 14.8954 14.8954 14 16 14Z" fill="#5AFF7A" fill-opacity="0.2" stroke="#5AFF7A" stroke-width="1.5"/>
    <path d="M14 16H26" stroke="#5AFF7A" stroke-width="1.5" stroke-linecap="round"/>
    
    <path d="M22 18H30C31.1046 18 32 18.8954 32 20V24C32 25.1046 31.1046 26 30 26H22C20.8954 26 20 25.1046 20 24V20C20 18.8954 20.8954 18 22 18Z" fill="#8B7AFF" fill-opacity="0.2" stroke="#8B7AFF" stroke-width="1.5"/>
    <path d="M20 20H32" stroke="#8B7AFF" stroke-width="1.5" stroke-linecap="round"/>
</svg>